<?xml version="1.0" encoding="UTF-8" standalone="no"?>
<svg
   xmlns:dc="http://purl.org/dc/elements/1.1/"
   xmlns:cc="http://creativecommons.org/ns#"
   xmlns:rdf="http://www.w3.org/1999/02/22-rdf-syntax-ns#"
   xmlns:svg="http://www.w3.org/2000/svg"
   xmlns="http://www.w3.org/2000/svg"
   xmlns:sodipodi="http://sodipodi.sourceforge.net/DTD/sodipodi-0.dtd"
   xmlns:inkscape="http://www.inkscape.org/namespaces/inkscape"
   width="744.094488189"
   height="1052.36220472"
   id="svg2"
   version="1.1"
   inkscape:version="0.48.5 r10040"
   sodipodi:docname="MainPCB-CodeusePart.svg">
  <metadata
     id="metadata61">
    <rdf:RDF>
      <cc:Work
         rdf:about="">
        <dc:format>image/svg+xml</dc:format>
        <dc:type
           rdf:resource="http://purl.org/dc/dcmitype/StillImage" />
        <dc:title />
      </cc:Work>
    </rdf:RDF>
  </metadata>
  <sodipodi:namedview
     pagecolor="#ffffff"
     bordercolor="#666666"
     borderopacity="1"
     objecttolerance="10"
     gridtolerance="10"
     guidetolerance="10"
     inkscape:pageopacity="0"
     inkscape:pageshadow="2"
     inkscape:window-width="1280"
     inkscape:window-height="672"
     id="namedview59"
     showgrid="false"
     inkscape:zoom="0.44851479"
     inkscape:cx="126.59356"
     inkscape:cy="829.97769"
     inkscape:window-x="-8"
     inkscape:window-y="-8"
     inkscape:window-maximized="1"
     inkscape:current-layer="g21" />
  <desc
     id="desc4">D:\Benoit Piriou\Mes documents\ISEN\2016-2017\Projet Robotique\3D\DesignTXBOT\PCB\MainPCB\MainPCB-CodeusePart.DXF - scale = 1.000000</desc>
  <defs
     id="defs6">
    <marker
       refY="0.0"
       refX="0.0"
       style="overflow:visible"
       id="DistanceX"
       orient="auto">
      <path
         style="stroke:#000000; stroke-width:0.5"
         d="M 3,-3 L -3,3 M 0,-5 L  0,5"
         id="path9" />
    </marker>
    <pattern
       height="8"
       width="8"
       patternUnits="userSpaceOnUse"
       y="0"
       x="0"
       id="Hatch">
      <path
         linecap="square"
         stroke="#000000"
         stroke-width="0.25"
         d="M8 4 l-4,4"
         id="path12" />
      <path
         linecap="square"
         stroke="#000000"
         stroke-width="0.25"
         d="M6 2 l-4,4"
         id="path14" />
      <path
         linecap="square"
         stroke="#000000"
         stroke-width="0.25"
         d="M4 0 l-4,4"
         id="path16" />
    </pattern>
    <symbol
       id="*Model_Space" />
    <symbol
       id="*Paper_Space" />
    <symbol
       id="*Paper_Space0" />
  </defs>
  <g
     inkscape:label="0"
     inkscape:groupmode="layer"
     id="g21">
    <path
       inkscape:connector-curvature="0"
       style="fill:none;stroke:#0000ff;stroke-width:0.50000000000000000;stroke-linecap:round"
       d="m 449.59461,76.25101 0,223.96604"
       id="path35" />
    <path
       inkscape:connector-curvature="0"
       style="fill:none;stroke:#0000ff;stroke-width:0.50000000000000000;stroke-linecap:round"
       d="m 449.59461,300.21705 99.82299,0"
       id="path37" />
    <path
       inkscape:connector-curvature="0"
       style="fill:none;stroke:#0000ff;stroke-width:0.50000000000000000;stroke-linecap:round"
       d="m 119.45666,300.21705 99.82299,0"
       id="path39" />
    <g
       id="g3082"
       style="stroke:#ff0000">
      <path
         id="path29"
         d="m 237.35052,98.47785 a 5.669293,5.669293 0 1 0 -11.33859,0 5.669293,5.669293 0 1 0 11.33859,0 z"
         style="fill:none;stroke:#ff0000;stroke-width:0.50000000000000000;stroke-linecap:round"
         inkscape:connector-curvature="0" />
      <path
         id="path23"
         d="m 352.15367,98.47785 a 17.71654,17.71654 0 1 0 -35.43308,0 17.71654,17.71654 0 0 0 35.43308,0 z"
         style="fill:none;stroke:#ff0000;stroke-width:0.50000000000000000;stroke-linecap:round"
         inkscape:connector-curvature="0" />
      <path
         id="path25"
         d="m 340.10642,415.17555 a 5.669291,5.669291 0 1 0 -11.33858,0 5.669291,5.669291 0 0 0 11.33858,0 z"
         style="fill:none;stroke:#ff0000;stroke-width:0.50000000000000000;stroke-linecap:round"
         inkscape:connector-curvature="0" />
      <path
         id="path27"
         d="m 534.98831,328.79285 a 5.6692915,5.6692915 0 1 0 -11.33858,0 5.6692915,5.6692915 0 1 0 11.33858,0 z"
         style="fill:none;stroke:#ff0000;stroke-width:0.50000000000000000;stroke-linecap:round"
         inkscape:connector-curvature="0" />
      <path
         id="path31"
         d="m 442.86233,98.47785 a 5.669295,5.669295 0 1 0 -11.33859,0 5.669295,5.669295 0 0 0 11.33859,0 z"
         style="fill:none;stroke:#ff0000;stroke-width:0.50000000000000000;stroke-linecap:round"
         inkscape:connector-curvature="0" />
      <path
         id="path33"
         d="m 145.22453,328.79285 a 5.6692915,5.6692915 0 1 0 -11.33858,0 5.6692915,5.6692915 0 1 0 11.33858,0 z"
         style="fill:none;stroke:#ff0000;stroke-width:0.50000000000000000;stroke-linecap:round"
         inkscape:connector-curvature="0" />
    </g>
    <path
       inkscape:connector-curvature="0"
       style="fill:none;stroke:#0000ff;stroke-width:0.50000000000000000;stroke-linecap:round"
       d="m 219.27965,300.21705 0,-223.96604"
       id="path41" />
    <path
       inkscape:connector-curvature="0"
       style="fill:none;stroke:#0000ff;stroke-width:0.50000000000000000;stroke-linecap:round"
       d="m 559.90445,312.58505 a 10.629921,10.629921 0 0 0 -10.48685,-12.368"
       id="path43" />
    <path
       inkscape:connector-curvature="0"
       style="fill:none;stroke:#0000ff;stroke-width:0.50000000000000000;stroke-linecap:round"
       d="m 108.96981,312.58505 a 228.54331,228.54331 0 0 0 450.93464,0"
       id="path45" />
    <path
       inkscape:connector-curvature="0"
       style="fill:none;stroke:#0000ff;stroke-width:0.50000000000000000;stroke-linecap:round"
       d="m 119.45666,300.21705 a 10.629921,10.629921 0 0 0 -10.48685,12.368"
       id="path47" />
    <path
       inkscape:connector-curvature="0"
       style="fill:none;stroke:#0000ff;stroke-width:0.50000000000000000;stroke-linecap:round"
       d="m 449.59461,76.25101 a 229.88667,229.88667 0 0 0 -230.31496,0"
       id="path49" />
    <text
       xml:space="preserve"
       style="font-size:40px;font-style:normal;font-weight:normal;line-height:125%;letter-spacing:0px;word-spacing:0px;fill:#000000;fill-opacity:1;stroke:none;font-family:Sans"
       x="339.6058"
       y="173.90732"
       id="text3007"
       sodipodi:linespacing="125%"><tspan
         sodipodi:role="line"
         id="tspan3009"
         x="345.15268"
         y="173.90732"
         style="text-align:center;text-anchor:middle">PCB </tspan><tspan
         sodipodi:role="line"
         x="339.6058"
         y="223.90732"
         id="tspan3011"
         style="text-align:center;text-anchor:middle">TX-RO</tspan></text>
    <text
       xml:space="preserve"
       style="font-size:40px;font-style:normal;font-weight:normal;line-height:125%;letter-spacing:0px;word-spacing:0px;fill:#000000;fill-opacity:1;stroke:none;font-family:Sans"
       x="21.626429"
       y="-411.13492"
       id="text3013"
       sodipodi:linespacing="125%"
       transform="matrix(-0.55370066,0.83271579,-0.83271579,-0.55370066,0,0)"
       inkscape:transform-center-x="-13.377485"
       inkscape:transform-center-y="-13.377485"><tspan
         sodipodi:role="line"
         id="tspan3015"
         x="21.626429"
         y="-411.13492"
         style="font-size:144px">:-)</tspan></text>
  </g>
</svg>
