<?xml version="1.0" encoding="UTF-8" standalone="no"?>
<svg
   xmlns:dc="http://purl.org/dc/elements/1.1/"
   xmlns:cc="http://creativecommons.org/ns#"
   xmlns:rdf="http://www.w3.org/1999/02/22-rdf-syntax-ns#"
   xmlns:svg="http://www.w3.org/2000/svg"
   xmlns="http://www.w3.org/2000/svg"
   xmlns:sodipodi="http://sodipodi.sourceforge.net/DTD/sodipodi-0.dtd"
   xmlns:inkscape="http://www.inkscape.org/namespaces/inkscape"
   width="744.094488189"
   height="1052.36220472"
   id="svg2"
   version="1.1"
   inkscape:version="0.48.5 r10040"
   sodipodi:docname="MainPCB-CodeusePart.DXF">
  <metadata
     id="metadata57">
    <rdf:RDF>
      <cc:Work
         rdf:about="">
        <dc:format>image/svg+xml</dc:format>
        <dc:type
           rdf:resource="http://purl.org/dc/dcmitype/StillImage" />
        <dc:title></dc:title>
      </cc:Work>
    </rdf:RDF>
  </metadata>
  <sodipodi:namedview
     pagecolor="#ffffff"
     bordercolor="#666666"
     borderopacity="1"
     objecttolerance="10"
     gridtolerance="10"
     guidetolerance="10"
     inkscape:pageopacity="0"
     inkscape:pageshadow="2"
     inkscape:window-width="1280"
     inkscape:window-height="662"
     id="namedview55"
     showgrid="false"
     inkscape:zoom="0.89702957"
     inkscape:cx="415.81807"
     inkscape:cy="785.31355"
     inkscape:window-x="-8"
     inkscape:window-y="-8"
     inkscape:window-maximized="1"
     inkscape:current-layer="g21" />
  <desc
     id="desc4">D:\Benoit Piriou\Mes documents\ISEN\2016-2017\Projet Robotique\3D\DesignTXBOT\PCB\MainPCB\MainPCB-CodeusePart.DXF - scale = 1.000000</desc>
  <defs
     id="defs6">
    <marker
       refY="0.0"
       refX="0.0"
       style="overflow:visible"
       id="DistanceX"
       orient="auto">
      <path
         style="stroke:#000000; stroke-width:0.5"
         d="M 3,-3 L -3,3 M 0,-5 L  0,5"
         id="path9" />
    </marker>
    <pattern
       height="8"
       width="8"
       patternUnits="userSpaceOnUse"
       y="0"
       x="0"
       id="Hatch">
      <path
         linecap="square"
         stroke="#000000"
         stroke-width="0.25"
         d="M8 4 l-4,4"
         id="path12" />
      <path
         linecap="square"
         stroke="#000000"
         stroke-width="0.25"
         d="M6 2 l-4,4"
         id="path14" />
      <path
         linecap="square"
         stroke="#000000"
         stroke-width="0.25"
         d="M4 0 l-4,4"
         id="path16" />
    </pattern>
    <symbol
       id="*Model_Space" />
    <symbol
       id="*Paper_Space" />
    <symbol
       id="*Paper_Space0" />
  </defs>
  <g
     inkscape:label="0"
     inkscape:groupmode="layer"
     id="g21">
    <g
       id="g3064">
      <path
         id="path23"
         d="m 496.37228,80.6412 a 5.669293,5.669293 0 1 0 -11.33859,0 5.669293,5.669293 0 1 0 11.33859,0 z"
         style="fill:none;stroke:#ff0000;stroke-width:0.50000000000000000;stroke-linecap:round"
         inkscape:connector-curvature="0" />
      <path
         id="path25"
         d="m 290.86047,80.6412 a 5.669293,5.669293 0 1 0 -11.33859,0 5.669293,5.669293 0 1 0 11.33859,0 z"
         style="fill:none;stroke:#ff0000;stroke-width:0.50000000000000000;stroke-linecap:round"
         inkscape:connector-curvature="0" />
      <path
         id="path27"
         d="m 553.06519,291.0397 a 5.669291,5.669291 0 1 0 -11.33858,0 5.669291,5.669291 0 1 0 11.33858,0 z"
         style="fill:none;stroke:#ff0000;stroke-width:0.50000000000000000;stroke-linecap:round"
         inkscape:connector-curvature="0" />
      <path
         id="path29"
         d="m 234.16755,291.0397 a 5.669291,5.669291 0 1 0 -11.33858,0 5.669291,5.669291 0 1 0 11.33858,0 z"
         style="fill:none;stroke:#ff0000;stroke-width:0.50000000000000000;stroke-linecap:round"
         inkscape:connector-curvature="0" />
      <path
         id="path31"
         d="m 393.61637,397.3389 a 5.669291,5.669291 0 1 0 -11.33858,0 5.669291,5.669291 0 0 0 11.33858,0 z"
         style="fill:none;stroke:#ff0000;stroke-width:0.50000000000000000;stroke-linecap:round"
         inkscape:connector-curvature="0" />
      <path
         id="path33"
         d="m 405.66362,80.6412 a 17.716535,17.716535 0 1 0 -35.43308,0 17.716535,17.716535 0 0 0 35.43308,0 z"
         style="fill:none;stroke:#ff0000;stroke-width:0.50000000000000000;stroke-linecap:round"
         inkscape:connector-curvature="0" />
    </g>
    <path
       inkscape:connector-curvature="0"
       style="fill:none;stroke:#0000ff;stroke-width:0.50000000000000000;stroke-linecap:round"
       d="m 503.10456,58.41436 0,223.96604"
       id="path35" />
    <path
       inkscape:connector-curvature="0"
       style="fill:none;stroke:#0000ff;stroke-width:0.50000000000000000;stroke-linecap:round"
       d="m 503.10456,58.41436 a 229.88667,229.88667 0 0 0 -230.31496,0"
       id="path37" />
    <path
       inkscape:connector-curvature="0"
       style="fill:none;stroke:#0000ff;stroke-width:0.50000000000000000;stroke-linecap:round"
       d="m 272.7896,282.3804 0,-223.96604"
       id="path39" />
    <path
       inkscape:connector-curvature="0"
       style="fill:none;stroke:#0000ff;stroke-width:0.50000000000000000;stroke-linecap:round"
       d="m 172.96661,282.3804 99.82299,0"
       id="path41" />
    <path
       inkscape:connector-curvature="0"
       style="fill:none;stroke:#0000ff;stroke-width:0.50000000000000000;stroke-linecap:round"
       d="m 172.96661,282.3804 a 10.629921,10.629921 0 0 0 -10.48685,12.368"
       id="path43" />
    <path
       inkscape:connector-curvature="0"
       style="fill:none;stroke:#0000ff;stroke-width:0.50000000000000000;stroke-linecap:round"
       d="m 162.47976,294.7484 a 228.54331,228.54331 0 0 0 450.93464,0"
       id="path45" />
    <path
       inkscape:connector-curvature="0"
       style="fill:none;stroke:#0000ff;stroke-width:0.50000000000000000;stroke-linecap:round"
       d="m 613.4144,294.7484 a 10.629921,10.629921 0 0 0 -10.48685,-12.368"
       id="path47" />
    <path
       inkscape:connector-curvature="0"
       style="fill:none;stroke:#0000ff;stroke-width:0.50000000000000000;stroke-linecap:round"
       d="m 503.10456,282.3804 99.82299,0"
       id="path49" />
  </g>
</svg>
