  0
SECTION
  2
HEADER
  9
$ACADVER
  1
AC1014
  9
$HANDSEED
  5
FFFF
  9
$MEASUREMENT
 70
     1
  0
ENDSEC
  0
SECTION
  2
TABLES
  0
TABLE
  2
VPORT
  5
8
330
0
100
AcDbSymbolTable
 70
     4
  0
VPORT
  5
2E
330
8
100
AcDbSymbolTableRecord
100
AcDbViewportTableRecord
  2
*ACTIVE
 70
     0
 10
0.0
 20
0.0
 11
1.0
 21
1.0
 12
210.0
 22
148.5
 13
0.0
 23
0.0
 14
10.0
 24
10.0
 15
10.0
 25
10.0
 16
0.0
 26
0.0
 36
1.0
 17
0.0
 27
0.0
 37
0.0
 40
341.0
 41
1.24
 42
50.0
 43
0.0
 44
0.0
 50
0.0
 51
0.0
 71
     0
 72
   100
 73
     1
 74
     3
 75
     0
 76
     0
 77
     0
 78
     0
  0
ENDTAB
  0
TABLE
  2
LTYPE
  5
5
330
0
100
AcDbSymbolTable
 70
     1
  0
LTYPE
  5
14
330
5
100
AcDbSymbolTableRecord
100
AcDbLinetypeTableRecord
  2
BYBLOCK
 70
     0
  3

 72
    65
 73
     0
 40
0.0
  0
LTYPE
  5
15
330
5
100
AcDbSymbolTableRecord
100
AcDbLinetypeTableRecord
  2
BYLAYER
 70
     0
  3

 72
    65
 73
     0
 40
0.0
  0
LTYPE
  5
16
330
5
100
AcDbSymbolTableRecord
100
AcDbLinetypeTableRecord
  2
CONTINUOUS
 70
     0
  3
Solid line
 72
    65
 73
     0
 40
0.0
  0
ENDTAB
  0
TABLE
  2
LAYER
  5
2
100
AcDbSymbolTable
 70
1
  0
LAYER
  5
50
100
AcDbSymbolTableRecord
100
AcDbLayerTableRecord
  2
0
 70
0
  6
CONTINUOUS
  0
ENDTAB
  0
TABLE
  2
STYLE
  5
3
330
0
100
AcDbSymbolTable
 70
     1
  0
STYLE
  5
11
330
3
100
AcDbSymbolTableRecord
100
AcDbTextStyleTableRecord
  2
STANDARD
 70
     0
 40
0.0
 41
1.0
 50
0.0
 71
     0
 42
2.5
  3
txt
  4

  0
ENDTAB
  0
TABLE
  2
VIEW
  5
6
330
0
100
AcDbSymbolTable
 70
     0
  0
ENDTAB
  0
TABLE
  2
UCS
  5
7
330
0
100
AcDbSymbolTable
 70
     0
  0
ENDTAB
  0
TABLE
  2
APPID
  5
9
330
0
100
AcDbSymbolTable
 70
     2
  0
APPID
  5
12
330
9
100
AcDbSymbolTableRecord
100
AcDbRegAppTableRecord
  2
ACAD
 70
     0
  0
ENDTAB
  0
TABLE
  2
DIMSTYLE
  5
A
330
0
100
AcDbSymbolTable
 70
     1
  0
DIMSTYLE
105
27
330
A
100
AcDbSymbolTableRecord
100
AcDbDimStyleTableRecord
  2
ISO-25
 70
     0
  3

  4

  5

  6

  7

 40
1.0
 41
2.5
 42
0.625
 43
3.75
 44
1.25
 45
0.0
 46
0.0
 47
0.0
 48
0.0
140
2.5
141
2.5
142
0.0
143
0.03937007874016
144
1.0
145
0.0
146
1.0
147
0.625
 71
     0
 72
     0
 73
     0
 74
     0
 75
     0
 76
     0
 77
     1
 78
     8
170
     0
171
     3
172
     1
173
     0
174
     0
175
     0
176
     0
177
     0
178
     0
270
     2
271
     2
272
     2
273
     2
274
     3
340
11
275
     0
280
     0
281
     0
282
     0
283
     0
284
     8
285
     0
286
     0
287
     3
288
     0
  0
ENDTAB
  0
TABLE
  2
BLOCK_RECORD
  5
1
330
0
100
AcDbSymbolTable
 70
     1
  0
BLOCK_RECORD
  5
1F
330
1
100
AcDbSymbolTableRecord
100
AcDbBlockTableRecord
  2
*MODEL_SPACE
  0
BLOCK_RECORD
  5
1B
330
1
100
AcDbSymbolTableRecord
100
AcDbBlockTableRecord
  2
*PAPER_SPACE
  0
ENDTAB
  0
ENDSEC
  0
SECTION
  2
BLOCKS
  0
BLOCK
  5
20
330
1F
100
AcDbEntity
  8
0
100
AcDbBlockBegin
  2
*MODEL_SPACE
 70
     0
 10
0.0
 20
0.0
 30
0.0
  3
*MODEL_SPACE
  1

  0
ENDBLK
  5
21
330
1F
100
AcDbEntity
  8
0
100
AcDbBlockEnd
  0
BLOCK
  5
1C
330
1B
100
AcDbEntity
 67
     1
  8
0
100
AcDbBlockBegin
  2
*PAPER_SPACE
  1

  0
ENDBLK
  5
1D
330
1B
100
AcDbEntity
 67
     1
  8
0
100
AcDbBlockEnd
  0
ENDSEC
  0
SECTION
  2
ENTITIES
  0
LINE
  5
100
100
AcDbEntity
  8
0
 62
5
100
AcDbLine
 10
359.675688
 20
780.888956
 30
0.0
 11
359.675688
 21
601.716124
 31
0.0
  0
LINE
  5
101
100
AcDbEntity
  8
0
 62
5
100
AcDbLine
 10
359.675688
 20
601.716124
 30
0.0
 11
439.534080
 21
601.716124
 31
0.0
  0
LINE
  5
102
100
AcDbEntity
  8
0
 62
5
100
AcDbLine
 10
95.565328
 20
601.716124
 30
0.0
 11
175.423720
 21
601.716124
 31
0.0
  0
SPLINE
  5
103
100
AcDbEntity
  8
0
 62
1
100
AcDbSpline
 70
8
 71
3
 72
8
 73
4
 74
0
 40
0
 40
0
 40
0
 40
0
 40
1
 40
1
 40
1
 40
1
 10
189.880414
 20
763.107484
 30
0.0
 10
189.880414
 20
764.727838
 30
0.0
 10
189.015965
 20
766.225108
 30
0.0
 10
187.612697
 20
767.035285
 30
0.0
  0
SPLINE
  5
104
100
AcDbEntity
  8
0
 62
1
100
AcDbSpline
 70
8
 71
3
 72
8
 73
4
 74
0
 40
0
 40
0
 40
0
 40
0
 40
1
 40
1
 40
1
 40
1
 10
187.612697
 20
767.035285
 30
0.0
 10
186.209429
 20
767.845463
 30
0.0
 10
184.480531
 20
767.845463
 30
0.0
 10
183.077263
 20
767.035285
 30
0.0
  0
SPLINE
  5
105
100
AcDbEntity
  8
0
 62
1
100
AcDbSpline
 70
8
 71
3
 72
8
 73
4
 74
0
 40
0
 40
0
 40
0
 40
0
 40
1
 40
1
 40
1
 40
1
 10
183.077263
 20
767.035285
 30
0.0
 10
181.673995
 20
766.225108
 30
0.0
 10
180.809546
 20
764.727838
 30
0.0
 10
180.809546
 20
763.107484
 30
0.0
  0
SPLINE
  5
106
100
AcDbEntity
  8
0
 62
1
100
AcDbSpline
 70
8
 71
3
 72
8
 73
4
 74
0
 40
0
 40
0
 40
0
 40
0
 40
1
 40
1
 40
1
 40
1
 10
180.809546
 20
763.107484
 30
0.0
 10
180.809546
 20
761.487129
 30
0.0
 10
181.673995
 20
759.989860
 30
0.0
 10
183.077264
 20
759.179682
 30
0.0
  0
SPLINE
  5
107
100
AcDbEntity
  8
0
 62
1
100
AcDbSpline
 70
8
 71
3
 72
8
 73
4
 74
0
 40
0
 40
0
 40
0
 40
0
 40
1
 40
1
 40
1
 40
1
 10
183.077264
 20
759.179682
 30
0.0
 10
184.480532
 20
758.369505
 30
0.0
 10
186.209430
 20
758.369505
 30
0.0
 10
187.612698
 20
759.179682
 30
0.0
  0
SPLINE
  5
108
100
AcDbEntity
  8
0
 62
1
100
AcDbSpline
 70
8
 71
3
 72
8
 73
4
 74
0
 40
0
 40
0
 40
0
 40
0
 40
1
 40
1
 40
1
 40
1
 10
187.612698
 20
759.179682
 30
0.0
 10
189.015966
 20
759.989860
 30
0.0
 10
189.880415
 20
761.487129
 30
0.0
 10
189.880415
 20
763.107484
 30
0.0
  0
LINE
  5
109
100
AcDbEntity
  8
0
 62
1
100
AcDbLine
 10
189.880415
 20
763.107484
 30
0.0
 11
189.880416
 21
763.107484
 31
0.0
  0
SPLINE
  5
10a
100
AcDbEntity
  8
0
 62
1
100
AcDbSpline
 70
8
 71
3
 72
8
 73
4
 74
0
 40
0
 40
0
 40
0
 40
0
 40
1
 40
1
 40
1
 40
1
 10
281.722936
 20
763.107484
 30
0.0
 10
281.722936
 20
768.171092
 30
0.0
 10
279.021533
 20
772.850059
 30
0.0
 10
274.636320
 20
775.381863
 30
0.0
  0
SPLINE
  5
10b
100
AcDbEntity
  8
0
 62
1
100
AcDbSpline
 70
8
 71
3
 72
8
 73
4
 74
0
 40
0
 40
0
 40
0
 40
0
 40
1
 40
1
 40
1
 40
1
 10
274.636320
 20
775.381863
 30
0.0
 10
270.251107
 20
777.913667
 30
0.0
 10
264.848301
 20
777.913667
 30
0.0
 10
260.463088
 20
775.381863
 30
0.0
  0
SPLINE
  5
10c
100
AcDbEntity
  8
0
 62
1
100
AcDbSpline
 70
8
 71
3
 72
8
 73
4
 74
0
 40
0
 40
0
 40
0
 40
0
 40
1
 40
1
 40
1
 40
1
 10
260.463088
 20
775.381863
 30
0.0
 10
256.077875
 20
772.850059
 30
0.0
 10
253.376472
 20
768.171092
 30
0.0
 10
253.376472
 20
763.107484
 30
0.0
  0
SPLINE
  5
10d
100
AcDbEntity
  8
0
 62
1
100
AcDbSpline
 70
8
 71
3
 72
8
 73
4
 74
0
 40
0
 40
0
 40
0
 40
0
 40
1
 40
1
 40
1
 40
1
 10
253.376472
 20
763.107484
 30
0.0
 10
253.376472
 20
758.043876
 30
0.0
 10
256.077875
 20
753.364909
 30
0.0
 10
260.463088
 20
750.833105
 30
0.0
  0
SPLINE
  5
10e
100
AcDbEntity
  8
0
 62
1
100
AcDbSpline
 70
8
 71
3
 72
8
 73
4
 74
0
 40
0
 40
0
 40
0
 40
0
 40
1
 40
1
 40
1
 40
1
 10
260.463088
 20
750.833105
 30
0.0
 10
264.848301
 20
748.301301
 30
0.0
 10
270.251107
 20
748.301301
 30
0.0
 10
274.636320
 20
750.833105
 30
0.0
  0
SPLINE
  5
10f
100
AcDbEntity
  8
0
 62
1
100
AcDbSpline
 70
8
 71
3
 72
8
 73
4
 74
0
 40
0
 40
0
 40
0
 40
0
 40
1
 40
1
 40
1
 40
1
 10
274.636320
 20
750.833105
 30
0.0
 10
279.021533
 20
753.364909
 30
0.0
 10
281.722936
 20
758.043876
 30
0.0
 10
281.722936
 20
763.107484
 30
0.0
  0
LINE
  5
110
100
AcDbEntity
  8
0
 62
1
100
AcDbLine
 10
281.722936
 20
763.107484
 30
0.0
 11
281.722936
 21
763.107484
 31
0.0
  0
SPLINE
  5
111
100
AcDbEntity
  8
0
 62
1
100
AcDbSpline
 70
8
 71
3
 72
8
 73
4
 74
0
 40
0
 40
0
 40
0
 40
0
 40
1
 40
1
 40
1
 40
1
 10
272.085136
 20
509.749324
 30
0.0
 10
272.086099
 20
511.370319
 30
0.0
 10
271.221861
 20
512.868593
 30
0.0
 10
269.818198
 20
513.679369
 30
0.0
  0
SPLINE
  5
112
100
AcDbEntity
  8
0
 62
1
100
AcDbSpline
 70
8
 71
3
 72
8
 73
4
 74
0
 40
0
 40
0
 40
0
 40
0
 40
1
 40
1
 40
1
 40
1
 10
269.818198
 20
513.679369
 30
0.0
 10
268.414535
 20
514.490144
 30
0.0
 10
266.684873
 20
514.490144
 30
0.0
 10
265.281210
 20
513.679369
 30
0.0
  0
SPLINE
  5
113
100
AcDbEntity
  8
0
 62
1
100
AcDbSpline
 70
8
 71
3
 72
8
 73
4
 74
0
 40
0
 40
0
 40
0
 40
0
 40
1
 40
1
 40
1
 40
1
 10
265.281210
 20
513.679369
 30
0.0
 10
263.877547
 20
512.868593
 30
0.0
 10
263.013309
 20
511.370319
 30
0.0
 10
263.014272
 20
509.749324
 30
0.0
  0
SPLINE
  5
114
100
AcDbEntity
  8
0
 62
1
100
AcDbSpline
 70
8
 71
3
 72
8
 73
4
 74
0
 40
0
 40
0
 40
0
 40
0
 40
1
 40
1
 40
1
 40
1
 10
263.014272
 20
509.749324
 30
0.0
 10
263.015759
 20
507.245526
 30
0.0
 10
265.045906
 20
505.216585
 30
0.0
 10
267.549704
 20
505.216585
 30
0.0
  0
SPLINE
  5
115
100
AcDbEntity
  8
0
 62
1
100
AcDbSpline
 70
8
 71
3
 72
8
 73
4
 74
0
 40
0
 40
0
 40
0
 40
0
 40
1
 40
1
 40
1
 40
1
 10
267.549704
 20
505.216585
 30
0.0
 10
270.053502
 20
505.216585
 30
0.0
 10
272.083649
 20
507.245526
 30
0.0
 10
272.085136
 20
509.749324
 30
0.0
  0
LINE
  5
116
100
AcDbEntity
  8
0
 62
1
100
AcDbLine
 10
272.085136
 20
509.749324
 30
0.0
 11
272.085136
 21
509.749324
 31
0.0
  0
SPLINE
  5
117
100
AcDbEntity
  8
0
 62
1
100
AcDbSpline
 70
8
 71
3
 72
8
 73
4
 74
0
 40
0
 40
0
 40
0
 40
0
 40
1
 40
1
 40
1
 40
1
 10
427.990648
 20
578.855484
 30
0.0
 10
427.991827
 20
580.476623
 30
0.0
 10
427.127637
 20
581.975123
 30
0.0
 10
425.723885
 20
582.786033
 30
0.0
  0
SPLINE
  5
118
100
AcDbEntity
  8
0
 62
1
100
AcDbSpline
 70
8
 71
3
 72
8
 73
4
 74
0
 40
0
 40
0
 40
0
 40
0
 40
1
 40
1
 40
1
 40
1
 10
425.723885
 20
582.786033
 30
0.0
 10
424.320133
 20
583.596944
 30
0.0
 10
422.590299
 20
583.596944
 30
0.0
 10
421.186547
 20
582.786033
 30
0.0
  0
SPLINE
  5
119
100
AcDbEntity
  8
0
 62
1
100
AcDbSpline
 70
8
 71
3
 72
8
 73
4
 74
0
 40
0
 40
0
 40
0
 40
0
 40
1
 40
1
 40
1
 40
1
 10
421.186547
 20
582.786033
 30
0.0
 10
419.782795
 20
581.975123
 30
0.0
 10
418.918605
 20
580.476623
 30
0.0
 10
418.919784
 20
578.855484
 30
0.0
  0
SPLINE
  5
11a
100
AcDbEntity
  8
0
 62
1
100
AcDbSpline
 70
8
 71
3
 72
8
 73
4
 74
0
 40
0
 40
0
 40
0
 40
0
 40
1
 40
1
 40
1
 40
1
 10
418.919784
 20
578.855484
 30
0.0
 10
418.918605
 20
577.234344
 30
0.0
 10
419.782795
 20
575.735845
 30
0.0
 10
421.186547
 20
574.924934
 30
0.0
  0
SPLINE
  5
11b
100
AcDbEntity
  8
0
 62
1
100
AcDbSpline
 70
8
 71
3
 72
8
 73
4
 74
0
 40
0
 40
0
 40
0
 40
0
 40
1
 40
1
 40
1
 40
1
 10
421.186547
 20
574.924934
 30
0.0
 10
422.590299
 20
574.114024
 30
0.0
 10
424.320133
 20
574.114024
 30
0.0
 10
425.723885
 20
574.924934
 30
0.0
  0
SPLINE
  5
11c
100
AcDbEntity
  8
0
 62
1
100
AcDbSpline
 70
8
 71
3
 72
8
 73
4
 74
0
 40
0
 40
0
 40
0
 40
0
 40
1
 40
1
 40
1
 40
1
 10
425.723885
 20
574.924934
 30
0.0
 10
427.127637
 20
575.735845
 30
0.0
 10
427.991827
 20
577.234344
 30
0.0
 10
427.990648
 20
578.855484
 30
0.0
  0
LINE
  5
11d
100
AcDbEntity
  8
0
 62
1
100
AcDbLine
 10
427.990648
 20
578.855484
 30
0.0
 11
427.990648
 21
578.855484
 31
0.0
  0
SPLINE
  5
11e
100
AcDbEntity
  8
0
 62
1
100
AcDbSpline
 70
8
 71
3
 72
8
 73
4
 74
0
 40
0
 40
0
 40
0
 40
0
 40
1
 40
1
 40
1
 40
1
 10
354.289864
 20
763.107484
 30
0.0
 10
354.289864
 20
764.727839
 30
0.0
 10
353.425415
 20
766.225109
 30
0.0
 10
352.022146
 20
767.035287
 30
0.0
  0
SPLINE
  5
11f
100
AcDbEntity
  8
0
 62
1
100
AcDbSpline
 70
8
 71
3
 72
8
 73
4
 74
0
 40
0
 40
0
 40
0
 40
0
 40
1
 40
1
 40
1
 40
1
 10
352.022146
 20
767.035287
 30
0.0
 10
350.618877
 20
767.845464
 30
0.0
 10
348.889979
 20
767.845464
 30
0.0
 10
347.486710
 20
767.035287
 30
0.0
  0
SPLINE
  5
120
100
AcDbEntity
  8
0
 62
1
100
AcDbSpline
 70
8
 71
3
 72
8
 73
4
 74
0
 40
0
 40
0
 40
0
 40
0
 40
1
 40
1
 40
1
 40
1
 10
347.486710
 20
767.035287
 30
0.0
 10
346.083441
 20
766.225109
 30
0.0
 10
345.218992
 20
764.727839
 30
0.0
 10
345.218992
 20
763.107484
 30
0.0
  0
SPLINE
  5
121
100
AcDbEntity
  8
0
 62
1
100
AcDbSpline
 70
8
 71
3
 72
8
 73
4
 74
0
 40
0
 40
0
 40
0
 40
0
 40
1
 40
1
 40
1
 40
1
 10
345.218992
 20
763.107484
 30
0.0
 10
345.218992
 20
761.487129
 30
0.0
 10
346.083441
 20
759.989859
 30
0.0
 10
347.486710
 20
759.179681
 30
0.0
  0
SPLINE
  5
122
100
AcDbEntity
  8
0
 62
1
100
AcDbSpline
 70
8
 71
3
 72
8
 73
4
 74
0
 40
0
 40
0
 40
0
 40
0
 40
1
 40
1
 40
1
 40
1
 10
347.486710
 20
759.179681
 30
0.0
 10
348.889979
 20
758.369503
 30
0.0
 10
350.618877
 20
758.369503
 30
0.0
 10
352.022146
 20
759.179681
 30
0.0
  0
SPLINE
  5
123
100
AcDbEntity
  8
0
 62
1
100
AcDbSpline
 70
8
 71
3
 72
8
 73
4
 74
0
 40
0
 40
0
 40
0
 40
0
 40
1
 40
1
 40
1
 40
1
 10
352.022146
 20
759.179681
 30
0.0
 10
353.425415
 20
759.989859
 30
0.0
 10
354.289864
 20
761.487129
 30
0.0
 10
354.289864
 20
763.107484
 30
0.0
  0
LINE
  5
124
100
AcDbEntity
  8
0
 62
1
100
AcDbLine
 10
354.289864
 20
763.107484
 30
0.0
 11
354.289864
 21
763.107484
 31
0.0
  0
SPLINE
  5
125
100
AcDbEntity
  8
0
 62
1
100
AcDbSpline
 70
8
 71
3
 72
8
 73
4
 74
0
 40
0
 40
0
 40
0
 40
0
 40
1
 40
1
 40
1
 40
1
 10
116.179624
 20
578.855484
 30
0.0
 10
116.180803
 20
580.476623
 30
0.0
 10
115.316613
 20
581.975123
 30
0.0
 10
113.912861
 20
582.786033
 30
0.0
  0
SPLINE
  5
126
100
AcDbEntity
  8
0
 62
1
100
AcDbSpline
 70
8
 71
3
 72
8
 73
4
 74
0
 40
0
 40
0
 40
0
 40
0
 40
1
 40
1
 40
1
 40
1
 10
113.912861
 20
582.786033
 30
0.0
 10
112.509109
 20
583.596944
 30
0.0
 10
110.779275
 20
583.596944
 30
0.0
 10
109.375523
 20
582.786033
 30
0.0
  0
SPLINE
  5
127
100
AcDbEntity
  8
0
 62
1
100
AcDbSpline
 70
8
 71
3
 72
8
 73
4
 74
0
 40
0
 40
0
 40
0
 40
0
 40
1
 40
1
 40
1
 40
1
 10
109.375523
 20
582.786033
 30
0.0
 10
107.971771
 20
581.975123
 30
0.0
 10
107.107581
 20
580.476623
 30
0.0
 10
107.108760
 20
578.855484
 30
0.0
  0
SPLINE
  5
128
100
AcDbEntity
  8
0
 62
1
100
AcDbSpline
 70
8
 71
3
 72
8
 73
4
 74
0
 40
0
 40
0
 40
0
 40
0
 40
1
 40
1
 40
1
 40
1
 10
107.108760
 20
578.855484
 30
0.0
 10
107.107581
 20
577.234344
 30
0.0
 10
107.971771
 20
575.735845
 30
0.0
 10
109.375523
 20
574.924934
 30
0.0
  0
SPLINE
  5
129
100
AcDbEntity
  8
0
 62
1
100
AcDbSpline
 70
8
 71
3
 72
8
 73
4
 74
0
 40
0
 40
0
 40
0
 40
0
 40
1
 40
1
 40
1
 40
1
 10
109.375523
 20
574.924934
 30
0.0
 10
110.779275
 20
574.114024
 30
0.0
 10
112.509109
 20
574.114024
 30
0.0
 10
113.912861
 20
574.924934
 30
0.0
  0
SPLINE
  5
12a
100
AcDbEntity
  8
0
 62
1
100
AcDbSpline
 70
8
 71
3
 72
8
 73
4
 74
0
 40
0
 40
0
 40
0
 40
0
 40
1
 40
1
 40
1
 40
1
 10
113.912861
 20
574.924934
 30
0.0
 10
115.316613
 20
575.735845
 30
0.0
 10
116.180803
 20
577.234344
 30
0.0
 10
116.179624
 20
578.855484
 30
0.0
  0
LINE
  5
12b
100
AcDbEntity
  8
0
 62
1
100
AcDbLine
 10
116.179624
 20
578.855484
 30
0.0
 11
116.179624
 21
578.855484
 31
0.0
  0
LINE
  5
12c
100
AcDbEntity
  8
0
 62
5
100
AcDbLine
 10
175.423720
 20
601.716124
 30
0.0
 11
175.423720
 21
780.888956
 31
0.0
  0
SPLINE
  5
12d
100
AcDbEntity
  8
0
 62
5
100
AcDbSpline
 70
8
 71
3
 72
8
 73
4
 74
0
 40
0
 40
0
 40
0
 40
0
 40
1
 40
1
 40
1
 40
1
 10
447.923560
 20
591.821724
 30
0.0
 10
448.332070
 20
594.286509
 30
0.0
 10
447.636032
 20
596.806236
 30
0.0
 10
446.020264
 20
598.711843
 30
0.0
  0
SPLINE
  5
12e
100
AcDbEntity
  8
0
 62
5
100
AcDbSpline
 70
8
 71
3
 72
8
 73
4
 74
0
 40
0
 40
0
 40
0
 40
0
 40
1
 40
1
 40
1
 40
1
 10
446.020264
 20
598.711843
 30
0.0
 10
444.404496
 20
600.617451
 30
0.0
 10
442.032489
 20
601.716121
 30
0.0
 10
439.534080
 20
601.716124
 30
0.0
  0
SPLINE
  5
12f
100
AcDbEntity
  8
0
 62
5
100
AcDbSpline
 70
8
 71
3
 72
8
 73
4
 74
0
 40
0
 40
0
 40
0
 40
0
 40
1
 40
1
 40
1
 40
1
 10
87.175848
 20
591.821724
 30
0.0
 10
101.800397
 20
503.586778
 30
0.0
 10
178.110993
 20
438.883239
 30
0.0
 10
267.549704
 20
438.883239
 30
0.0
  0
SPLINE
  5
130
100
AcDbEntity
  8
0
 62
5
100
AcDbSpline
 70
8
 71
3
 72
8
 73
4
 74
0
 40
0
 40
0
 40
0
 40
0
 40
1
 40
1
 40
1
 40
1
 10
267.549704
 20
438.883239
 30
0.0
 10
356.988415
 20
438.883239
 30
0.0
 10
433.299011
 20
503.586778
 30
0.0
 10
447.923560
 20
591.821724
 30
0.0
  0
SPLINE
  5
131
100
AcDbEntity
  8
0
 62
5
100
AcDbSpline
 70
8
 71
3
 72
8
 73
4
 74
0
 40
0
 40
0
 40
0
 40
0
 40
1
 40
1
 40
1
 40
1
 10
95.565328
 20
601.716124
 30
0.0
 10
93.066919
 20
601.716121
 30
0.0
 10
90.694912
 20
600.617451
 30
0.0
 10
89.079144
 20
598.711843
 30
0.0
  0
SPLINE
  5
132
100
AcDbEntity
  8
0
 62
5
100
AcDbSpline
 70
8
 71
3
 72
8
 73
4
 74
0
 40
0
 40
0
 40
0
 40
0
 40
1
 40
1
 40
1
 40
1
 10
89.079144
 20
598.711843
 30
0.0
 10
87.463376
 20
596.806236
 30
0.0
 10
86.767338
 20
594.286509
 30
0.0
 10
87.175848
 20
591.821724
 30
0.0
  0
SPLINE
  5
133
100
AcDbEntity
  8
0
 62
5
100
AcDbSpline
 70
8
 71
3
 72
8
 73
4
 74
0
 40
0
 40
0
 40
0
 40
0
 40
1
 40
1
 40
1
 40
1
 10
359.675688
 20
780.888956
 30
0.0
 10
302.686932
 20
813.873238
 30
0.0
 10
232.412476
 20
813.873238
 30
0.0
 10
175.423720
 20
780.888956
 30
0.0
  0
ENDSEC
  0
SECTION
  2
OBJECTS
  0
DICTIONARY
  5
C
330
0
100
AcDbDictionary
  3
ACAD_GROUP
350
D
  3
ACAD_MLINESTYLE
350
17
  0
DICTIONARY
  5
D
330
C
100
AcDbDictionary
  0
DICTIONARY
  5
1A
330
C
100
AcDbDictionary
  0
DICTIONARY
  5
17
330
C
100
AcDbDictionary
  3
STANDARD
350
18
  0
DICTIONARY
  5
19
330
C
100
AcDbDictionary
  0
ENDSEC
  0
EOF
